<svg xmlns="http://www.w3.org/2000/svg" viewBox="0 0 6795 4042"><defs><style>.cls-1{isolation:isolate;}.cls-2,.cls-30{fill:#fff;}.cls-3{fill:#f7cc7f;}.cls-31,.cls-4{fill:#50bfa5;}.cls-5{fill:#07345a;}.cls-27,.cls-6{fill:#f47458;}.cls-7{fill:#355389;}.cls-8{fill:#5184ce;}.cls-9{fill:#466eb6;}.cls-10,.cls-11{fill:#184655;}.cls-10,.cls-15{opacity:0.3;}.cls-10,.cls-15,.cls-31{mix-blend-mode:multiply;}.cls-12{fill:#cce6ff;}.cls-13{fill:#e9ffff;}.cls-14,.cls-15,.cls-17{fill:#9bc1f9;}.cls-14,.cls-29{opacity:0.6;}.cls-16{fill:#13375b;}.cls-18{fill:#96d9c9;}.cls-19{fill:#a34b3d;}.cls-20{fill:#b75742;}.cls-21{fill:#f7a491;}.cls-22{fill:#e0973f;}.cls-23{fill:#dd513a;}.cls-24{fill:#0e2e35;}.cls-25{fill:#e25a44;}.cls-26{fill:#f38b80;}.cls-27,.cls-31{opacity:0.5;}.cls-28{fill:#f48c7f;}.cls-29{fill:#c5ddf9;}.cls-30{mix-blend-mode:soft-light;}.cls-32{fill:#f8a492;}</style></defs><g class="cls-1"><g id="Layer_1" data-name="Layer 1"><rect class="cls-2" width="6795" height="4042"/><path class="cls-3" d="M4921.59-1054.19c-92.13,306.56,127.86,619.34,490.4,697.24s732.44-108.12,824.57-414.68-127.87-619.33-490.4-697.23S5013.72-1360.74,4921.59-1054.19Zm167.55,16.62h0c81.42-228.8,366.78-358.46,637.36-289.61h0C5997.08-1258.33,6150.43-1017,6069-788.25h0c-81.43,228.79-366.78,358.46-637.36,289.61h0C5161.06-567.48,5007.72-808.77,5089.14-1037.57Z" transform="translate(0 2042)"/><path class="cls-3" d="M4451.51-1053.3c3.19,13.7,17.86,18.48,54,30.62,64.74,21.71,129.5,43.43,193.28,67,10,3.71,20.07,16.94,21.31,26.58,7.37,57.3,10.65,115,18.71,172.21,2.5,17.73.46,27.16-18.39,37.17-75.32,40-149.33,81.83-223,122.53,18.43,66.81,111.21,217,160.82,259,78.13-27.8,158.47-55.18,237.42-85.18,24.57-9.34,37.12-7.55,57.6,9,47.51,38.4,99.31,73.25,151.64,107,21.18,13.68,32.47,24.4,25.61,49-17.8,63.87-31,128.63-47.54,192.76-4.44,17.24-.56,28,19.56,33.28q142,37.19,284.1,74.23c23.28,6.08,26.87-10.1,32.68-21.7,29.41-58.66,59.22-117.22,86.29-176.66,10.16-22.32,23.78-29.67,52.46-30.43,75.89-2,151.62-8.21,233.23-13.09L5947.7.81c110-30.8,209-76.91,302.85-137.89-37.16-75.48-74.32-151-107.07-217.53,56.18-60.18,109.68-114.95,159.24-172.16,14.35-16.55,25.59-19.28,47.12-15.28,74.71,13.88,149.93,25.78,224.76,39.23,16.18,2.9,28,3.43,36.33-11.51,41.87-75.52,75.66-153,89.3-236.27,3-18.57-4.85-25.89-22.93-32.21-72.79-25.42-145-52-217.93-77.2-17.66-6.09-25.06-12.43-26.66-30.65-5.57-63.2-14.36-126.27-25-189-2.73-16,3.29-22.26,16.63-29.69,74.33-41.39,148.29-83.25,224.29-126-38.56-91.54-87.74-176.5-158.18-254.63l-268.09,94.35-219.15-153.71c13.39-56.49,29.37-121.49,44.06-186.69,12.05-53.52,21.12-46.48-42.46-69-6.06-2.16-11.21-6.17-16.78-9.32l-170.6-43.41c-13.29-1.27-27.24-.81-39.75-4.16-32.56-8.72-50.89-2.46-63.86,27-27,61.43-58.62,121.47-90.05,181.44-4.12,7.86-17.63,16-27.83,17.14-66.55,7.12-134,9.38-199.85,19.41-32.22,4.91-45.77-2.54-61.66-23.78-45.09-60.23-93.11-118.9-144.68-184.14l-302.14,134.15c7.91,17,12.27,26.77,17,36.45,29.4,59.7,58.16,119.63,88.81,178.86,8.7,16.82,4.27,26.27-9.35,40-46.79,47-90,96.57-136.42,143.86-7.2,7.34-25,12.49-36.28,10.83-61.8-9.07-123-21-184.59-31.16-49.84-8.19-68.38-11.08-84.17,2.68Zm446.78-5.89C4944.5-1213,5058.76-1342.3,5220-1423.4s350.21-104.24,532.06-65.16,334.8,135.69,430.71,272,123.28,296.14,77.07,449.9-160.47,283.11-321.73,364.2-350.21,104.24-532.06,65.17-334.81-135.69-430.71-272S4852.08-905.43,4898.29-1059.19Z" transform="translate(0 2042)"/><path class="cls-4" d="M618.8-259.51c10.46,6.9,22.34,3.29,51.86-5.43,52.81-15.59,105.64-31.19,159-45.2,8.4-2.21,22.72,1.36,29.46,6.66,40.1,31.52,78,65.1,118.43,96.26,12.54,9.66,17.16,16.29,11.94,30.74C968.68-118.69,949.73-60.4,930.29-2.94,983,29.43,1132.7,79.37,1188.93,82.81c30.16-51.61,61.92-103.95,91.21-157.26,9.12-16.59,17.85-21.08,40.58-20.13,52.72,2.2,105.84.33,158.61-2.42,21.37-1.12,34.89.37,46,18.39,28.89,46.69,61.13,91.89,91,138.17,8,12.45,17.07,17.27,32.57,11.52q109.35-40.56,218.65-81.22c17.92-6.65,10-18.07,6.36-27.7-18.61-48.69-36.92-97.5-57.44-145.63-7.7-18.07-4-28.59,12.94-41.8,44.83-35,87-72.38,133.49-111.62l219.76,52.39c47.64-67.59,79.12-139.62,98.17-218.36l-200.25-84.49c-3.3-61.52-4.86-118.56-10.33-175.32-1.59-16.43,3.55-23.09,19.11-30.23,54-24.78,107.07-51,160.87-76.09,11.63-5.43,19.16-10.38,14.9-23.14-21.52-64.47-49.18-126.53-92.67-183.16-9.69-12.63-19-13.57-33.94-9.37-60,16.92-120.4,32.87-180.33,50-14.51,4.15-22.94,3.59-35.24-6.76-42.67-35.9-87.22-70.29-132.71-103.64-11.63-8.52-11.85-15-8.36-25.42,19.39-58.18,38.29-116.48,57.84-176.23-80.32-38.44-163-68.18-254.35-84.3l-104.14,176.46-228.63,4.08c-27-40.26-57.69-86.83-89.31-133-26-37.86-16.07-37.62-68.71-23-5,1.38-10.64,1.23-16,1.8L948-1355.2c-8.86,5.14-17,11.62-26.72,15.15-25.2,9.17-32.44,21.12-22,44.79,21.78,49.32,39.91,99.82,58.12,150.21,2.38,6.6-.73,17.58-6.25,22.78-36,33.9-75.54,65.26-109.28,100.62-16.51,17.3-29.37,18.8-52.23,13-64.83-16.53-130.46-30.81-202.33-47.5-33.79,72.84-66.74,143.9-100.07,215.76,15.34,6.78,24.1,10.8,33,14.56,55,23.18,109.68,46.79,165.12,69.14,15.74,6.34,18.92,14.05,19.16,28.41.82,49.35,5.39,98.65,6.6,148,.19,7.65-7.41,18.69-15.29,22.7-43.17,22-87.77,41.89-131.47,63.13-35.35,17.18-48.41,23.67-49.44,39ZM886.44-461.69c-67.53-113.91-78.57-243.24-31.06-364.17s147.85-219,282.56-276.07,287.67-66.44,430.68-26.27,259,125,326.49,238.93S1973.68-646,1926.18-525.1s-147.86,219-282.57,276.08-287.67,66.43-430.67,26.27S954-347.78,886.44-461.69Z" transform="translate(0 2042)"/><path class="cls-3" d="M1272.05-1565.93l21.46-33.31-20.19-33.87c-2.3-3.86,1.62-8.28,6.63-7.48l44,7,31.75-26.75c3.62-3.05,9.79-1.25,10.44,3l5.73,37.65,39.81,17.34c4.54,2,4.43,7.5-.17,9.35L1371-1576.71l-7.15,37.47c-.81,4.27-7,5.89-10.54,2.75l-30.72-27.6-44.24,5.82C1273.36-1557.61,1269.61-1562.13,1272.05-1565.93Z" transform="translate(0 2042)"/><path class="cls-5" d="M3613.62-1408.07l18.32-25.16-14.71-5c-3.22-1.1-4.77-4.21-3.47-6.93h0c1.31-2.72,5-4,8.2-2.93l17,5.82,16.38-22.6-15.71-5.39c-3.22-1.1-4.77-4.2-3.47-6.93h0c1.31-2.72,5-4,8.2-2.93l18,6.17,19-25.88A6.92,6.92,0,0,1,3689-1502l2.74.94c3.6,1.23,5,4.91,3,7.71l-17.69,24.42,26,8.93,19-25.88a6.94,6.94,0,0,1,7.71-2.12l3,1c3.6,1.23,5,4.9,3,7.71l-17.7,24.41,14.72,5c3.22,1.1,4.77,4.2,3.46,6.93h0c-1.3,2.72-5,4-8.19,2.93l-17-5.82L3695-1423.08l15.72,5.39c3.22,1.11,4.77,4.21,3.46,6.93h0c-1.3,2.72-5,4-8.19,2.93l-18-6.16-19.43,26.68a6.92,6.92,0,0,1-7.72,2.15l-3.21-1.1c-3.61-1.24-5-4.92-3-7.72l18.33-25.17-26.06-8.93-19.43,26.69a6.93,6.93,0,0,1-7.72,2.14l-3.21-1.1C3613-1401.59,3611.58-1405.27,3613.62-1408.07Zm66.39-20.16,16.38-22.6-26-8.93L3654-1437.17Z" transform="translate(0 2042)"/><path class="cls-6" d="M3496.05-970l-24.8,111.48c2.07,5.66,8.52,7.12,24.43,10.86,28.48,6.7,57,13.4,85.13,20.93,4.43,1.18,9.37,6.38,10.41,10.4,6.16,23.9,10.61,48.12,17.06,72,2,7.39,1.64,11.44-5.78,16.38-29.65,19.76-58.65,40.22-87.58,60.2,11.34,27.49,58.48,87.31,81.65,103.14,31.49-14.7,63.93-29.32,95.65-45,9.87-4.88,15.26-4.6,24.79,1.61,22.08,14.39,45.8,27.12,69.68,39.38,9.67,5,15,9.06,13.41,19.71-4.1,27.63-6.23,55.46-9.79,83.15-1,7.44,1.25,11.84,10,13.3q61.9,10.28,123.83,20.5c10.15,1.68,10.8-5.28,12.63-10.4,9.29-25.87,18.75-51.71,27-77.83,3.1-9.8,8.45-13.42,20.51-14.83,31.92-3.74,63.54-9.24,97.72-14.41l76.68,78.76a441.77,441.77,0,0,0,120.44-69.72c-19.69-30.44-39.39-60.88-56.76-87.71,20.51-27.54,40.16-52.68,58-78.71,5.17-7.53,9.77-9.11,19.07-8.24,32.26,3,64.64,5.17,96.93,8,7,.61,12,.38,14.71-6.24,13.65-33.46,23.78-67.44,25.1-103.1.3-7.94-3.42-10.74-11.39-12.71-32.07-8-64-16.43-96.07-24.28-7.78-1.9-11.23-4.29-12.88-11.92-5.71-26.45-12.78-52.73-20.63-78.8-2-6.66.2-9.52,5.44-13.16,29.16-20.3,58.14-40.78,87.93-61.72-21.15-37.15-46.42-71.13-80.31-101.42l-108.1,50-100.66-56.51c2.64-24.35,5.93-52.39,8.65-80.46,2.24-23,6.44-20.42-21.59-27.52-2.67-.67-5.06-2.17-7.57-3.29l-74.3-11.82c-5.68,0-11.54.7-17-.24-14.2-2.44-21.6.9-25.51,13.83-8.13,27-18.27,53.49-28.33,80-1.32,3.47-6.59,7.44-10.84,8.29-27.69,5.54-56,9.06-83.29,15.8-13.33,3.3-19.45.67-27.28-7.68-22.24-23.7-45.62-46.63-70.86-72.19l-120.35,68.1c4.24,6.86,6.6,10.84,9.13,14.74,15.58,24.07,30.91,48.26,47,72.09,4.57,6.76,3.2,10.92-1.82,17.21-17.24,21.63-32.83,44.18-49.9,65.91-2.65,3.36-9.88,6.22-14.73,5.95-26.56-1.48-53-4.2-79.55-6.13C3510-975.89,3502-976.41,3496.05-970Zm245.09,93.84c22.18-99.65,135.68-165.22,253.52-146.48h0c117.85,18.75,195.4,114.73,173.23,214.37h0c-22.18,99.64-135.68,165.22-253.52,146.47h0c-117.85-18.75-195.4-114.73-173.23-214.37Z" transform="translate(0 2042)"/><polygon class="cls-7" points="2634.07 460.89 2712.13 468.86 2678.82 417.61 2634.07 460.89"/><path class="cls-6" d="M2920.78-1012.21c-2.45,22.3,20.23,42.68,45.38,46.4,26.05,3.86,49.27-10.5,58.23-30.79,17.68-40-34.12-71.62-62.22-47.39-26.23,22.61-17.93,56.21,10.38,56.22,10.68,0,27.87-7.57,21-18.52-1.53-2.45-5.83-2.27-7.41,0-3.44,4.95-3.16,5.13-4.79,6.23-2.55,1.74-6.09,2.31-9.27,2.27-28.83-.42-9.66-56.19,24.32-42.68,18.66,7.41,24.17,25.36,17.69,41-6.23,15.08-23,26.76-42.31,25.72-23.11-1.26-42.49-19.23-44-38.48-.3-3.89-6.65-3.82-7.06,0Z" transform="translate(0 2042)"/><path class="cls-4" d="M4346.66-1838.32l23.34,8.48s39-7.36,43.32-13.55,6.9-21.83,12.34-21.84,15.76,2.27,17.23,13.23c1.07,8-14.74,29.47-12.83,32,1.19,1.61,14.45,6.8,24.2,10.46,6.41,2.41,10.71,7.63,11.17,13.57v0c.31,4-2.73,7.66-7.3,8.74l-7.1,1.7,1.64,6.13c1.21,4.56-2.14,9.1-7.51,10.16l-5.48,1.08,1.37,3.76c1.75,4.85-1.84,9.91-7.71,10.86l-4.77.77.1,1.06c.38,4.4-3.26,8.32-8.39,9l-4.72.66-62.16-22.58a47.48,47.48,0,0,1-15.43-9.12l-20.31-11a4.11,4.11,0,0,1-2-5.55l24.13-45.83A5.65,5.65,0,0,1,4346.66-1838.32Z" transform="translate(0 2042)"/><rect class="cls-8" x="3190.67" y="1144.04" width="578.13" height="249.05" rx="32.7"/><polygon class="cls-9" points="3131.86 3599.02 2685.11 3773.14 2685.11 3811.71 4276.12 3811.71 4276.12 3773.14 3825.34 3599.02 3131.86 3599.02"/><rect class="cls-9" x="3131.86" y="2852.71" width="693.77" height="746.63"/><path class="cls-9" d="M5578.07,1044.94V-638.69c0-80-76.7-144.85-171.3-144.85H1546.21c-94.61,0-171.3,64.85-171.3,144.85V1044.94Z" transform="translate(0 2042)"/><rect class="cls-10" x="2685.11" y="3773.14" width="1591.01" height="38.57"/><rect class="cls-10" x="3131.86" y="3511.41" width="693.49" height="87.61"/><path class="cls-8" d="M1374.91,1044.94v269.79c0,56.12,43.87,101.61,98,101.61H5480.08c54.12,0,98-45.49,98-101.61V1044.94Z" transform="translate(0 2042)"/><path class="cls-11" d="M3522.14-831.81c0,18.22-17.47,33-39,33s-39-14.77-39-33,17.48-33,39-33S3522.14-850,3522.14-831.81Z" transform="translate(0 2042)"/><path class="cls-12" d="M5479.68,971.82v-1606c0-42.1-41.82-76.23-93.4-76.23H1566.69c-51.58,0-93.39,34.13-93.39,76.23v1606Z" transform="translate(0 2042)"/><rect class="cls-13" x="1649.24" y="1461.22" width="2408.03" height="1420.8"/><rect class="cls-8" x="1649.24" y="1461.22" width="2408.03" height="166.35"/><rect class="cls-14" x="4914.22" y="1816.69" width="164.37" height="1075.79"/><rect class="cls-14" x="4684.67" y="2144.83" width="164.37" height="747.65"/><rect class="cls-14" x="5147.07" y="2049.77" width="164.37" height="842.71"/><rect class="cls-14" x="4455.12" y="2016.62" width="164.37" height="875.85"/><rect class="cls-14" x="4225.57" y="2276.31" width="164.37" height="616.17"/><rect class="cls-15" x="4914.22" y="2064.63" width="164.37" height="827.85"/><rect class="cls-15" x="4684.67" y="2317.14" width="164.37" height="575.34"/><rect class="cls-15" x="5147.07" y="2243.99" width="164.37" height="648.49"/><rect class="cls-15" x="4455.12" y="2218.48" width="164.37" height="674"/><rect class="cls-15" x="4225.57" y="2418.32" width="164.37" height="474.16"/><rect class="cls-14" x="1732.32" y="1696.07" width="2222.61" height="241.22"/><rect class="cls-14" x="2524.38" y="2005.8" width="1430.55" height="61.83"/><rect class="cls-8" x="1732.32" y="2005.8" width="703.75" height="713.5"/><rect class="cls-14" x="2524.38" y="2136.14" width="1430.55" height="61.83"/><rect class="cls-14" x="2524.38" y="2527.14" width="1430.55" height="61.83"/><rect class="cls-14" x="2524.38" y="2657.47" width="1430.55" height="61.83"/><path class="cls-3" d="M727.66,219.66l1336.13-2c20.07,0,36.36,13.7,36.4,30.66L2103.36,1737c0,17-16.2,30.75-36.27,30.78l-1336.13,2c-20.07,0-36.36-13.7-36.4-30.66L691.39,250.44C691.36,233.47,707.59,219.69,727.66,219.66Z" transform="translate(0 2042)"/><rect class="cls-2" x="766.3" y="261.89" width="1262.14" height="1455.12" transform="translate(-1.51 2044.13) rotate(-0.09)"/><path class="cls-16" d="M1669.3,197.67c0-6.54-6.3-11.84-14-11.83l-529.95.81c-7.74,0-14,5.33-14,11.87l.1,46.58,558-.85Z" transform="translate(0 2042)"/><path class="cls-16" d="M1390.17,129.62c-46.16.07-83.51,31.77-83.43,70.8S1344.31,271,1390.47,271s83.51-31.77,83.43-70.8S1436.33,129.55,1390.17,129.62Zm.25,116c-29.6,0-53.64-20.21-53.7-45.24s23.9-45.36,53.51-45.4,53.64,20.21,53.69,45.24S1420,245.57,1390.42,245.61Z" transform="translate(0 2042)"/><path class="cls-7" d="M1660.72,186.77c5,1.79,8.57,6,8.58,10.9l.1,46.58-558,.85c.07,32.26,31.06,58.38,69.22,58.32l419.78-.64c38.16-.06,69-26.26,69-58.53l-.1-46.58C1669.29,192.76,1665.76,188.56,1660.72,186.77Z" transform="translate(0 2042)"/><path class="cls-17" d="M1125.32,186.65h0a14.84,14.84,0,0,0-11.61,5.24A14.84,14.84,0,0,1,1125.32,186.65Z" transform="translate(0 2042)"/><path class="cls-17" d="M1112,195a10.58,10.58,0,0,1,1.06-2.13A10.58,10.58,0,0,0,1112,195Z" transform="translate(0 2042)"/><path class="cls-11" d="M1882.15,690.19l-179.42.27-.32-151.71,179.42-.27Zm-172.1-5.94,164.76-.25-.3-139.31-164.75.25Z" transform="translate(0 2042)"/><path class="cls-11" d="M1882.69,942.63l-179.42.27L1703,791.19l179.42-.27Zm-172.1-5.94,164.75-.25-.29-139.31-164.76.25Z" transform="translate(0 2042)"/><path class="cls-11" d="M1883.23,1195.07l-179.42.28-.33-151.72,179.43-.27Zm-172.1-5.94,164.75-.25-.29-139.31-164.76.25Z" transform="translate(0 2042)"/><path class="cls-11" d="M1883.77,1447.51l-179.42.28-.33-151.72,179.42-.27Zm-172.1-5.94,164.75-.25-.3-139.31-164.75.25Z" transform="translate(0 2042)"/><rect class="cls-17" x="859.41" y="542.55" width="767.87" height="21.84" transform="translate(-0.84 2043.9) rotate(-0.09)"/><rect class="cls-17" x="859.54" y="604.39" width="767.87" height="21.84" transform="translate(-0.94 2043.9) rotate(-0.09)"/><rect class="cls-17" x="859.67" y="666.23" width="767.87" height="21.84" transform="translate(-1.03 2043.9) rotate(-0.09)"/><rect class="cls-17" x="859.96" y="803.61" width="767.87" height="21.84" transform="translate(-1.24 2043.89) rotate(-0.09)"/><rect class="cls-17" x="860.09" y="865.45" width="767.87" height="21.84" transform="translate(-1.33 2043.89) rotate(-0.09)"/><rect class="cls-17" x="860.23" y="927.29" width="767.87" height="21.84" transform="translate(-1.43 2043.89) rotate(-0.09)"/><rect class="cls-17" x="860.49" y="1050.97" width="767.87" height="21.84" transform="translate(-1.61 2043.89) rotate(-0.09)"/><rect class="cls-17" x="860.62" y="1112.8" width="767.87" height="21.84" transform="translate(-1.71 2043.89) rotate(-0.09)"/><rect class="cls-17" x="860.75" y="1174.64" width="767.87" height="21.84" transform="translate(-1.8 2043.9) rotate(-0.09)"/><rect class="cls-17" x="861.02" y="1298.32" width="767.87" height="21.84" transform="translate(-1.99 2043.9) rotate(-0.09)"/><rect class="cls-17" x="861.15" y="1360.16" width="767.87" height="21.84" transform="translate(-2.08 2043.9) rotate(-0.09)"/><rect class="cls-17" x="861.28" y="1421.99" width="767.87" height="21.84" transform="translate(-2.18 2043.9) rotate(-0.09)"/><rect class="cls-17" x="861.62" y="1581.78" width="885.85" height="21.84" transform="translate(-2.43 2043.99) rotate(-0.09)"/><rect class="cls-17" x="861.73" y="1634.56" width="1060.54" height="21.84" transform="translate(-2.51 2044.12) rotate(-0.09)"/><polygon class="cls-6" points="1791.56 2707.39 1735.84 2626.56 1755.78 2616.73 1788.12 2663.65 1840.91 2556.55 1862.21 2564.06 1791.56 2707.39"/><polygon class="cls-6" points="1792.1 2963.14 1736.38 2882.31 1756.32 2872.48 1788.66 2919.4 1841.46 2812.3 1862.76 2819.81 1792.1 2963.14"/><polygon class="cls-6" points="1793.17 3463.16 1737.45 3382.32 1757.38 3372.5 1789.73 3419.42 1842.52 3312.32 1863.83 3319.82 1793.17 3463.16"/><polygon class="cls-6" points="1855.24 3123.08 1839.17 3109.37 1793.33 3147.79 1747.32 3109.51 1731.31 3123.27 1777.11 3161.38 1731.47 3199.62 1747.54 3213.33 1793.39 3174.92 1839.39 3213.19 1855.4 3199.43 1809.6 3161.33 1855.24 3123.08"/><path class="cls-15" d="M894.74,1229.84a382.76,382.76,0,0,0-127.88,21.82l.07,35.56a335,335,0,0,1,127.88-25.14c161.3-.24,292.76,110.52,293,246.91.19,87.38-53.52,164.41-134.56,208.55l63-.1q6.78-5.16,13.29-10.66c62.34-52.9,96.58-123.17,96.42-197.85s-34.7-144.84-97.26-197.56S983.06,1229.7,894.74,1229.84Z" transform="translate(0 2042)"/><path class="cls-15" d="M894.91,1305.64c-47,.07-90.81,11.57-127.87,31.35l0,19.36c36.13-21.71,80.26-34.52,127.86-34.59,122.38-.19,222.13,83.85,222.35,187.33s-99.17,187.83-221.55,188c-47.61.07-91.78-12.61-128-34.21l0,19.36c37.14,19.68,81,31,128,31,132.9-.2,240.82-91.79,240.58-204.16S1027.8,1305.44,894.91,1305.64Z" transform="translate(0 2042)"/><path class="cls-11" d="M1127.76,471.6V398.9h-34.27v-6.36h79.33v6.36h-34.27v72.7Z" transform="translate(0 2042)"/><path class="cls-11" d="M1260.35,465.24v6.36h-68.76V392.54h66.34v6.36h-55.62v27.69h40.26V433h-40.26v32.29Z" transform="translate(0 2042)"/><path class="cls-11" d="M1271.31,452.68l9.31-2.62a30.86,30.86,0,0,0,12,12.48q7.32,4,18,4,11,0,17.64-4.22t6.69-11.12a11.16,11.16,0,0,0-4.38-9.06q-4.4-3.56-14.87-6.49-5.7-1.56-15.14-3.74a107.21,107.21,0,0,1-12.08-3.26q-8.37-3.31-11.89-7.06a13,13,0,0,1-3.52-9.25q0-9.83,8.84-15.47t24.33-5.64q13.77,0,22.72,4.62a30.69,30.69,0,0,1,13.65,14.2l-9.07,2a27.58,27.58,0,0,0-11.07-10.9q-6.77-3.52-16.7-3.53-9.63,0-15.61,3.8t-6,9.88a9.63,9.63,0,0,0,3.87,7.75q3.87,3.17,12,5.14c2.08.53,5.11,1.26,9.07,2.19q17.06,4,22,6.25,7.9,3.53,11.46,7.72a14.83,14.83,0,0,1,3.56,9.92q0,10.38-9.58,16.52t-25.93,6.15q-14.71,0-24.21-4.92A35.44,35.44,0,0,1,1271.31,452.68Z" transform="translate(0 2042)"/><path class="cls-11" d="M1390.45,471.6V398.9h-34.26v-6.36h79.32v6.36h-34.27v72.7Z" transform="translate(0 2042)"/><path class="cls-11" d="M1456,471.6V392.54h10.72V471.6Z" transform="translate(0 2042)"/><path class="cls-11" d="M1509.83,398.26V471.6h-10.41V392.54h17.45l55.46,66.71V392.54h10.4V471.6h-11.42Z" transform="translate(0 2042)"/><path class="cls-11" d="M1680.91,462.72a37.34,37.34,0,0,1-13.69,7.83,59,59,0,0,1-18.38,2.6q-21.52,0-32.78-10.51t-11.27-30.43q0-19.74,11.5-30.45t32.55-10.71q15.56,0,24.87,5.66t13.77,17.85L1677.39,416q-3.75-9.57-10.76-14.11t-18-4.55q-15.65,0-24.17,8.85T1616,431.3q0,17.52,8.64,26.45t25.7,8.93q12.83,0,20.66-5.05t7.82-13.34v-8.44H1650v-5.94h40.37V471.6h-9.47Z" transform="translate(0 2042)"/><path class="cls-4" d="M3039.19-1486.21l-24.35,80.32,74.55-35.4,222.66-69.43L3148-1514.57s-85.09,8.62-90.05,11.6S3039.19-1486.21,3039.19-1486.21Z" transform="translate(0 2042)"/><polygon class="cls-18" points="2974.29 499.24 3312.05 531.28 3039.19 555.79 2974.29 499.24"/><polygon class="cls-18" points="3136.07 648.87 3056.14 579.87 3312.05 531.28 3136.07 648.87"/><path class="cls-17" d="M2527.36-1240.41a164.16,164.16,0,0,1,7.13-19.06,175.52,175.52,0,0,1,8.81-17.12l7.17,3a169.66,169.66,0,0,0-8.49,16.51,157.6,157.6,0,0,0-6.87,18.36q-.83,2.71-1.54,5.44l-7.81-1.47C2526.26-1236.68,2526.8-1238.58,2527.36-1240.41Zm44.07-73.56a282,282,0,0,1,35.92-32.12l5.34,5a272.9,272.9,0,0,0-35,31.27Zm253.9,12.08-1.26-.89,5.2-5.15c.37.27.73.53,1,.74a5.18,5.18,0,0,0,.77.3c4.19,1.33,15.57,2.48,22.4-.09a32.82,32.82,0,0,0,14.6-11l6.73,3.67a41.06,41.06,0,0,1-18.07,13.54c-9.48,3.57-23.23,1.91-28.48.24A11.38,11.38,0,0,1,2825.33-1301.89ZM2648.72-1373a441.33,441.33,0,0,1,45.2-22l3.56,6.06a430.54,430.54,0,0,0-44.33,21.58ZM2801-1357.53a71.91,71.91,0,0,1,5.68-19.44,91,91,0,0,1,5.52-10.41l7.1,3.12a85.4,85.4,0,0,0-5.13,9.68,66.29,66.29,0,0,0-5.22,17.84,53,53,0,0,0-.21,12.71l-8,.59A58.76,58.76,0,0,1,2801-1357.53Zm43-30.36-.95-.51,4.24-5.74,1,.55c15.45,8.38,27.4,20.9,32.8,34.36l-7.58,2.18C2868.74-1369.09,2858-1380.33,2844-1387.89Zm-99.45-19.29c9.14-1.39,25.75-3.64,34.25-3.12,6.6.4,12.62,1,18.41,1.69l-1.19,6.69c-5.58-.71-11.4-1.24-17.79-1.63-5.57-.34-17.33.77-32.27,3Zm100.16-15.37a183.4,183.4,0,0,1,43.54-25l3.49,6.09a175.24,175.24,0,0,0-41.61,23.92Z" transform="translate(0 2042)"/><path class="cls-17" d="M2939.78-1454.09a181.39,181.39,0,0,1,25.65-1.46l.15-6.77a191.32,191.32,0,0,0-27,1.54Z" transform="translate(0 2042)"/><path class="cls-19" d="M2344.3-1353.4c4.81.17,18,3.91,37.33,34.77,24.66,39.4,60.7,158.44,60.7,158.44l-107.58,33.88-13.82-24.85-22.76-191.28S2343-1353.44,2344.3-1353.4Z" transform="translate(0 2042)"/><path class="cls-20" d="M2202.09-1370.56c30.76,0,106.88,7.63,142.2,17.17,0,0,26,188.62-23.36,332-11,32.08,9.13,133,9.13,133L2011.29-892s37.76-244,23.53-283.38-14.56-176.74-14.56-176.74,2.18-.29,71.62-10.44C2124.27-1367.29,2169.24-1370.59,2202.09-1370.56Z" transform="translate(0 2042)"/><path class="cls-21" d="M2164.94-538.36s7,68.82,20,87.88-.68,51.46-1.36,55.91-27.3,10.8-69.61,7-41.63-12.07-38.22-25.41,25.93-30.5,27.3-43.2-13-58.45-13-58.45Z" transform="translate(0 2042)"/><path class="cls-22" d="M2294.09-945.25s220-10.34,269.19,14.83-34.91,148.66-34.91,148.66-153.12-6-453,8.67c-71,3.47-77.14-156.58-63.86-169.83S2294.09-945.25,2294.09-945.25Z" transform="translate(0 2042)"/><path class="cls-23" d="M2108.71-382.24c-43.57-3.92-38.18-22-34.67-35.76,2.2-8.6,14.7-18.74,22.15-28.34,3.9,2.63,10.23,7.26,29.15,12,19.65,4.91,46.58-4.8,63.75-10.88,6.11,19.25,6.39,43.79,5.82,47.52C2194.21-393.14,2152.28-378.31,2108.71-382.24Z" transform="translate(0 2042)"/><path class="cls-3" d="M2132.76-812.14c8.79,56.25,52.32,336.29,52.32,336.29l-101,10.59s-124.21-365.52-117.84-421.42,52.86-60.61,52.86-60.61S2109.49-961,2132.76-812.14Z" transform="translate(0 2042)"/><path class="cls-21" d="M2016.79-1331.15c29.81-9.46,44.39,217.62,48.4,311.09,52.78,4.29,144.78,0,167.69-1.43,10.77-.68,35.61-8.37,46.32-9.56,11-1.22,20.94-1.85,26.33-1.06,2,.3,57,19.32,61.71,23.49,5.83,5.18,21.61,18.23,19,23.87s-30.35-15.72-30.35-15.72l-13.53-6.42c16.85,13.91,49,32.23,44.34,38.91-4.51,6.5-33.49-12.09-54.14-24.77,17.71,13.53,39.72,37.75,34.65,41.52-4.56,3.39-29.59-24.64-56.34-32.71-9.92-3-19.8,5.29-27.6,6.29-5.73.74-14.58,2.3-20.2.95l-29-6.94c-9.87.75-10.11,5.69-20.08,7.48-11.57,2.08-30.55,4.28-45.28,7.32-84.83,17.53-113.13,25.67-139.1,25.65C1950.91-943.23,1946.35-1308.81,2016.79-1331.15Z" transform="translate(0 2042)"/><path class="cls-19" d="M1960.23-1118c-5.59-95.73-4.77-213.74,58.7-233.87,25-7.94,69.19,39.82,61.25,235.82C2046.3-1113.66,1996.56-1111.75,1960.23-1118Z" transform="translate(0 2042)"/><path class="cls-21" d="M2470.84-471.62s-14.59,21.78-3.11,40,71.69,45.13,78,55,3.82,16.91,3.82,16.91L2370.7-396.7l13.7-45.58,16.73-31.5Z" transform="translate(0 2042)"/><path class="cls-23" d="M2477-421.83s-50.26,7.36-70.2-6.08-18.59-15.91-25.95-13.6c-4.72,1.48-11.92,19.63-16.45,32.41-2.42,6.8,2.42,13.93,10.57,15.63l186.2,38.91c14.15,2.3,23.5-5.17,14-14.76-6.52-6.58-14.7-11.68-19.21-15.12C2542-395,2477-421.83,2477-421.83Z" transform="translate(0 2042)"/><path class="cls-3" d="M2453.31-901.15c14.23-25.31,46.58-58.27,103.5-38.42,54.29,18.93,68.86,65.46,51.73,113.1s-129.89,327.71-133.82,366.22l-90,.5s16.36-221.76,20.38-275.36C2408.92-786.69,2428.69-857.34,2453.31-901.15Z" transform="translate(0 2042)"/><path class="cls-11" d="M2599.48-1159.1h-301c-8,0-15.14,4.08-18.16,10.33L2187.68-957H2021.75c-4.64,0-8.4,3.19-8.4,7.12h0c0,3.94,3.76,7.12,8.4,7.12H2494c13,0,24.76-6.46,30.08-16.51l93.31-176.36C2623.21-1146.65,2613.71-1159.1,2599.48-1159.1Z" transform="translate(0 2042)"/><path class="cls-2" d="M2437.44-1047.44a17.47,17.47,0,0,1-19.78,12.87,15,15,0,0,1-12.42-18.33,17.47,17.47,0,0,1,19.78-12.86A15,15,0,0,1,2437.44-1047.44Z" transform="translate(0 2042)"/><path class="cls-24" d="M2273.61-1600.93a257,257,0,0,1-26.62-9c-9.75-4-22.38-8.63-30.36-9.68-16.8-2.19-45.65-.73-61.59,13.89-19.85,18.21-55.13,3.29-48,98.66,8,108,79,96.11,80.75,94.28s63.31-69.06,63.31-69.06,21.54,39.83,21.54,38.37S2382.57-1569.9,2273.61-1600.93Z" transform="translate(0 2042)"/><path class="cls-21" d="M2219.72-1404.82l6.13,38.58s13.73,55.57-3.93,66.28-75.11-67.87-75.11-67.87l6.07-97.74Z" transform="translate(0 2042)"/><path class="cls-6" d="M2150.92-1433.89c14.59,33.33,49.33,53.83,74,61.78l-5.2-32.71-66.84-60.75Z" transform="translate(0 2042)"/><path class="cls-21" d="M2216.09-1571.93c37.43-5.11,71,20.34,70.06,52a333.13,333.13,0,0,1-5.13,49.48c-8.14,44.53-44.06,83.74-67.82,80.24s-83.53-41.92-73-105.28C2146.69-1534.6,2176.82-1566.57,2216.09-1571.93Z" transform="translate(0 2042)"/><path class="cls-21" d="M2156.68-1487.92c-2,9.79-11.28,16.6-20.72,15.21s-15.46-10.46-13.46-20.25,11.28-16.6,20.72-15.21S2158.68-1497.71,2156.68-1487.92Z" transform="translate(0 2042)"/><path class="cls-24" d="M2143.22-1508.17s28.72,6,39.38-9.58,48.78-49.34,97.23-35.36-42.64-34-46.51-34-50.39-.28-50.39-.28-35.86,24.94-37.15,27.68-11.63,32.62-11.63,32.62Z" transform="translate(0 2042)"/><path class="cls-2" d="M2195.77-1443l52.26,8.45s-5,16.64-28.09,13.49C2191.76-1424.89,2195.77-1443,2195.77-1443Z" transform="translate(0 2042)"/><path class="cls-21" d="M2803.77,1599.78s-9.56,56.43-26,74.64c-5.52,6.11-15.61,13.83-22.24,24.88-10.31,17.19-4.61,42.79,3,56.89,3.9,7.23-.28,7.21,8.61,9.54,26.32,6.91,54.33-4.72,65.53-26.16a116.63,116.63,0,0,0,12.86-48.08c2.81-51.23,21.55-77.28,21.55-77.28Z" transform="translate(0 2042)"/><path class="cls-21" d="M3091.67,1625.59s5.91,63.62,1.11,84.3c-2.56,11.07-16.86,33.86-10.3,44.28s14.05,13,14.05,13l169.95,2.33c9.25.12,3.14-4.94-4.33-9.61-12.22-7.64-22.07-12.69-61.1-28.74-2.55-1-11.81-6.06-15.16-7.8-8.47-4.4-17-11.32-24.3-18.26-12.21-11.55-13.27-67.58-13.27-67.58Z" transform="translate(0 2042)"/><path class="cls-25" d="M3224.5,779.9s21.4,103.29,7.35,171-81.5,695.45-81.5,695.45l-74.94,3.59s-15.71-262.21-12.9-298.68,25-97.49,25-97.49l-7.46-211.71L3174.68,764Z" transform="translate(0 2042)"/><path class="cls-6" d="M3004.23,758.17s-59,75.54-73.07,138.05,10.31,254.63-16.72,336.54c-14.63,44.35-70.08,112.83-78.51,170.14s-41.51,207.4-41.51,207.4l74.92,12.63,174.1-374.87L3180,909.23l35-174.5Z" transform="translate(0 2042)"/><path class="cls-3" d="M2837.76,1728.29c-40.83,6.33-68-14-82.13-29.18-10.38,17.22-15.44,42.93-7.81,57.08,6.72,12.46,26.37,12.1,41.84,12.59,16.35.51,29-7.21,37.12-19.32A108.33,108.33,0,0,0,2837.76,1728.29Z" transform="translate(0 2042)"/><path class="cls-3" d="M3185.87,1723.37c-44.94,9.81-78.17,3.14-96.75-3.23-4.79,11.55-11.15,26-7.78,34.4,4.13,10.23,10,12.54,15.19,12.66,41,.91,150.38,2.16,181.68,2.51,4.37,0,6.79-4.3,4-7.15C3274.42,1754.68,3189.22,1725.11,3185.87,1723.37Z" transform="translate(0 2042)"/><path class="cls-26" d="M3493.49,601.46c3.13-5.63-29.88-13.29-30.95-19.35s43.2-2.65,45.41-7.7c4.09-9.31-48.19-6.26-46.63-10.65s55.29-9.76,50.56-17.93-55,10.49-55.83,5.16,48.62-13.8,49.16-25.29c.29-6.14-82.29,23.53-90.94,19.42s13.66-31.14,7-36-35.67,51.63-40.9,53.28S3261.79,593,3223.26,597.8c-3.26-11-32.23-71.75-35-82.16-22.62,10.83-51.45-2.2-74.61,7.45,11.65,34.76,37.83,149.25,48.29,154.4,31.85,15.7,199.4-59.14,227.1-72.39s41.88-6.93,59.94-10.3S3490.36,607.09,3493.49,601.46Z" transform="translate(0 2042)"/><path class="cls-24" d="M3195.34,264.21c8.43-32.4,16.68-65-5.54-100.59-18-28.81-49.06-45.38-85-49-101.93-10.22-80.15,70.24-222.61,87.66-44.27,5.41-85.4,10.62-122.36,29.23-66.74,33.62-91.93,87.54-47.67,175.39,108.38,215.12,367.71,28.19,407.26-9.86C3158.64,359.3,3189.91,285.06,3195.34,264.21Z" transform="translate(0 2042)"/><path class="cls-3" d="M3034.91,366.46s-51.47,4.94-82.26,33.26,49.76,255.94,55.36,292-53.53,135.79-53.53,135.79,201,33.78,253.24,4.6c0,0,4.59-278.56-1-304.3s-52.25-130.44-63.44-140.74S3034.91,366.46,3034.91,366.46Z" transform="translate(0 2042)"/><path class="cls-21" d="M3060.81,278.71s-.4,1.94-1.12,5.23c-3.47,15.79-16.83,68.16-25.86,82.56-10.91,17.4,37.34,72.9,83.79,66.12,13.82-2-11.69-51-10.46-56.18,2.34-9.93,5.52-23.47,8.78-37.37,1.84-7.83,3.7-15.78,5.45-23.24,5-21.23,9-38.58,9-38.58Z" transform="translate(0 2042)"/><path class="cls-27" d="M3059.69,283.94c.72-3.29,1.12-5.23,1.12-5.23l69.6-1.46s-4.06,17.35-9,38.58c-1.74,7.42-3.59,15.32-5.42,23.11-10.74-1.33-22-5.74-33.23-14.05a74.7,74.7,0,0,1-25.16-31.59C3058.43,289.58,3059.15,286.39,3059.69,283.94Z" transform="translate(0 2042)"/><path class="cls-21" d="M3102.67,138.85s-28.38,3.33-48.94,25.77-42.72,91.84,8.36,129.57,101.54-5,109-50.26S3177.08,137.22,3102.67,138.85Z" transform="translate(0 2042)"/><path class="cls-21" d="M3186,232.75c-3.22,10.92-11.68,18.29-18.89,16.47s-10.45-12.14-7.23-23.06,11.68-18.29,18.9-16.47S3189.22,221.84,3186,232.75Z" transform="translate(0 2042)"/><path class="cls-24" d="M3134.2,139.05s-66.7,64.75-98,67.8S3000.68,245,3000.68,245s11.21-80.8,42.25-96.38S3134.2,139.05,3134.2,139.05Z" transform="translate(0 2042)"/><path class="cls-21" d="M3046.4,222.57c2.55,11.72-2.58,22.47-11.45,24s-18.14-6.72-20.69-18.44,2.58-22.46,11.46-24S3043.85,210.85,3046.4,222.57Z" transform="translate(0 2042)"/><path class="cls-11" d="M3045.45,551.19,3261,577.85c6.48.8,11,5.89,10,11.37l-42.07,243.13c-1,5.48-7,9.27-13.44,8.47L3000,814.16c-6.48-.8-11-5.89-10-11.37L3032,559.66C3033,554.18,3039,550.39,3045.45,551.19Z" transform="translate(0 2042)"/><path class="cls-16" d="M3206.2,563a2.11,2.11,0,0,0-2-2.31l-89.9-11.12a2.37,2.37,0,0,0-2.72,1.72l-1.37,7.9,94.65,11.71Z" transform="translate(0 2042)"/><path class="cls-16" d="M3160.88,545.54c-7.83-1-15.1,3.62-16.25,10.24s4.28,12.77,12.11,13.74,15.1-3.61,16.25-10.23S3168.72,546.51,3160.88,545.54Zm-3.4,19.68c-5-.62-8.5-4.57-7.76-8.81s5.4-7.19,10.42-6.57,8.5,4.57,7.76,8.82S3162.5,565.84,3157.48,565.22Z" transform="translate(0 2042)"/><path class="cls-7" d="M3205.07,561a1.94,1.94,0,0,1,1.13,2l-1.37,7.9-94.65-11.71c-.95,5.47,3.53,10.56,10,11.36l71.21,8.81c6.47.8,12.49-3,13.43-8.46l1.37-7.9A1.94,1.94,0,0,0,3205.07,561Z" transform="translate(0 2042)"/><path class="cls-2" d="M3139.18,266.36l-48.5-.21s1,15.58,22.34,16.19C3139,283.1,3139.18,266.36,3139.18,266.36Z" transform="translate(0 2042)"/><path class="cls-21" d="M2894.24,613.36l78.1,6.75s-1.28,56,.06,62.48c0,0,133.54,31.3,189.35,39.8,0,0,25.42-12.18,35.7-16s37.91-8.1,44-8.78,4,5-1.22,7-18.83,7.38-22.68,14c0,0,11,1,16.86-1.18s13.86-6.85,14-9.26,1.46-8.23,3.37-7.92c.49.08,1.14,2,1.79,4s1.28,3.84,1.83,5.75c1,3.44,2.11,8.46,2.55,10.72,1,5.14-2.73,19.34-3.25,24.38-.95,9.21-4.06,13.3-9.81,15.64-9.27,2.73-19.07,4.47-33.57,5.74-26.56,2.32-51-4.14-61.63-5.15S2969,746,2969,746s-67.6-8.22-72.08-18.06S2894.24,613.36,2894.24,613.36Z" transform="translate(0 2042)"/><path class="cls-3" d="M2962.09,391.49s-24.65,9.88-46.32,52.56c-20.59,40.57-26.64,243-26.64,243l81.69-11.51,41.51-94.38c29.59-56.49,22-122.27-21.16-172.15C2979.67,395.7,2969.08,387.66,2962.09,391.49Z" transform="translate(0 2042)"/><rect class="cls-14" x="4250.15" y="1461.08" width="346.72" height="293.18"/><rect class="cls-14" x="4658.21" y="1461.08" width="676.39" height="39.84"/><rect class="cls-14" x="4658.21" y="1545.52" width="456.47" height="39.84"/><rect class="cls-14" x="4658.21" y="1629.97" width="607.57" height="39.84"/><path class="cls-21" d="M5567.35,392.34c-14.17-9.74-123.78,30.93-122.39,45.08s-76.48,151.4-76.48,151.4l-134.56-90.73-.06,0c-1.19-3.28-13.95-38.57-14.57-44.88-.65-6.62-23.39-18.21-33.95-16.51s9,12.91,10.32,15c3.5,5.6-10,7.7-10,7.7s-38.42-10.42-39.25-21-27.1,18.55-24,22.61,65.81,46.75,74.86,56c0,0,174.06,168.25,186.45,172.66,10.87,3.86,49.65-54.13,86.28-92.62S5611.64,422.79,5567.35,392.34Z" transform="translate(0 2042)"/><path class="cls-28" d="M5918.56,1629.52s23.92,19.73,24.46,27,2.12,84.83-7.64,92.08-38.45,12.38-29.23,20.52c7,6.16,60.59,4.84,96.12,3.19,10.37-.48,23.38-70.46,27.49-80.75,6-14.94,20.48-48.58,15.05-59-2.64-5.08-15.29-15.51-33.11-25.24-18.74-10.23-36.67-33-36.67-33Z" transform="translate(0 2042)"/><path class="cls-21" d="M5670.79,1675.47s21.4,51.13,21.43,51.26c1.59,8.1,7.86,28.12,7.86,35.48,0,27.67-147.55-23.48-114.48-35.74,3-1.11,12.38-10,13.37-19.39,1.51-14.51-12.43-32.7-12.43-32.7Z" transform="translate(0 2042)"/><path class="cls-4" d="M5439.33,723.38s-10.76,91.65-10.76,93c0,148.27-34.76,437.9-28.15,465.78,16.13,68,189.69,414.84,189.69,414.84l93.81-9.48L5583.23,1268.4l23.43-163.29,63.66-330.41Z" transform="translate(0 2042)"/><path class="cls-18" d="M5754.16,804.45l17.8,86.87,48.15,357.54,183.41,349.44s-25.8,50.85-63.86,58l-291.9-358.77L5466.44,838.45l6.36-102Z" transform="translate(0 2042)"/><path class="cls-20" d="M5401.91,505.14,5532,516.37s6-90.17,6-133.19c0-52.18-5.26-119.4-12.71-117.95-20.92,4.06-49.09,13.82-65.86,33.31C5401.36,366,5401.91,505.14,5401.91,505.14Z" transform="translate(0 2042)"/><path class="cls-6" d="M5465.82,374c-2.73,15.91-52.73,448.45-52.73,448.45,236.84,96.73,367.54,17.23,367.54,17.23s-7.75-303.74,1.53-345.08c6.15-27.35,13.81-209.11-7.15-214.2-26.9-6.53-57.74-13.47-91.36-16.42-28.7-2.52-140.17-4-160.12,1.69C5523.53,265.65,5477.28,307.07,5465.82,374Z" transform="translate(0 2042)"/><path class="cls-6" d="M6010.54,1606.81s-55.12,131.25-76.7,137.58c-5.73,1.68-33.22,5.95-38.41,16.23-1.56,3.1,0,13.45,0,13.45h114.9s14.54-57.83,20.28-83.24c0,0,30.42-62.08,27-67.72S6010.54,1606.81,6010.54,1606.81Z" transform="translate(0 2042)"/><path class="cls-6" d="M5708.47,1771.34l-16.9-45.13s-35.48,12.69-53.22,10.57-52.39-10.57-52.39-10.57c-70.81,19.7-128.83,29.27-118.28,45.13h240.79Z" transform="translate(0 2042)"/><path class="cls-21" d="M5383.66,689.67a29.83,29.83,0,0,1-3.57-2.25c4.21-42.37,3.45-83.44-12.28-97.32l7.41-13.25c18.23,11.92,26.89,43.59,23.49,95-.24,3.54-1.44,6.24-2.41,10.65C5391,687.41,5386.23,690.58,5383.66,689.67Z" transform="translate(0 2042)"/><path class="cls-21" d="M5652,180.35l15.26,85.09s-55.75,101.31-89,92.52c-27.93-7.37-10.75-97-10.75-97s15.22-48.14,10.66-72.23S5652,180.35,5652,180.35Z" transform="translate(0 2042)"/><path class="cls-6" d="M5578.13,188.72c-4.57-24.09,73.86-8.37,73.86-8.37l1.26,7.06a38.92,38.92,0,0,1-8.5,11.86c-17.52,15.94-44.9,25.51-68.57,26.24C5578.54,212.52,5580,198.6,5578.13,188.72Z" transform="translate(0 2042)"/><path class="cls-21" d="M5664.85,60c2.22-.68,17.77,96.91-11.74,123.76s-87,35.64-107.63,14.49c-22.81-23.39-21.66-128.28,24.22-155.9S5664.85,60,5664.85,60Z" transform="translate(0 2042)"/><path class="cls-24" d="M5587.16-9.87c35.47,6.12,58.44,24.44,66.88,32.25,16.1,1.61,38,9.13,60.58,40.77,27.79,38.91,7.27,82-25.08,103.16s-31.9,45.57-31.9,45.57l-5.11-12.63a60.52,60.52,0,0,1-4.05-29.76c.75-6,2.28-12.54,5.23-17.9,7.78-14.12-16.71-23.5-23.58-35.25-5.29-9-5.55-29.75-13.88-44.7l-9.95-11.42s-22.95-15.11-45.41-10.84S5541.66-17.71,5587.16-9.87Z" transform="translate(0 2042)"/><path class="cls-21" d="M5631.64,133.71c-.24,11.9,6.16,21.65,14.3,21.76s14.91-9.43,15.14-21.34-6.17-21.65-14.3-21.77S5631.87,121.8,5631.64,133.71Z" transform="translate(0 2042)"/><path class="cls-2" d="M5583.72,161.21l-44.48-1.94s.15,14.33,19.68,15.66C5582.73,176.56,5583.72,161.21,5583.72,161.21Z" transform="translate(0 2042)"/><path class="cls-24" d="M5219.75,383.69q15.66-13.56,29.26-27.9L5443.15,516.1c11.93,9.85,7.82,29.77-9.18,44.49s-40.45,18.66-52.38,8.81L5187.44,409.09Q5204,397.26,5219.75,383.69Z" transform="translate(0 2042)"/><ellipse class="cls-29" cx="4863.5" cy="89.49" rx="415.28" ry="491.25" transform="translate(4684.8 6992.53) rotate(-88.95)"/><path class="cls-30" d="M5216.56,376.2c-80.55,72.42-190.72,119.72-311.77,129L4373.66,48.72c.1-.86.18-1.72.29-2.58,13.22-104.23,70.56-195.35,154.48-261.38Z" transform="translate(0 2042)"/><path class="cls-30" d="M4859.29-326.3,5350.47,95.86a355.77,355.77,0,0,1-2.77,38.6c-7.48,59-29.12,113.78-61.69,162.2L4622.67-273.47C4693.3-307.06,4774.24-326.06,4859.29-326.3Z" transform="translate(0 2042)"/><path class="cls-11" d="M4476.71,424.38c220.09,181.75,571.68,179.15,785.29-5.8s208.37-482.23-11.72-664S4678.6-424.55,4465-239.6,4256.63,242.63,4476.71,424.38Zm44.66-38.66C4326.69,225,4322.05-38,4511-201.6s499.94-165.9,694.62-5.13S5405,217,5216,380.58,4716.05,546.48,4521.37,385.72Z" transform="translate(0 2042)"/><path class="cls-31" d="M4500.19,404.06c206.73,170.72,537,168.28,737.63-5.45s195.72-453-11-623.68-537-168.28-737.64,5.45S4293.45,233.34,4500.19,404.06Zm21.18-18.34C4326.69,225,4322.05-38,4511-201.6s499.94-165.9,694.62-5.13S5405,217,5216,380.58,4716.05,546.48,4521.37,385.72Z" transform="translate(0 2042)"/><path class="cls-11" d="M6046.11,1087.22l30.17-26.46c30.15-26.44,29.25-68.55-2-94l-560.5-459.5c-31.28-25.49-81.07-24.72-111.22,1.72l-30.17,26.46c-30.16,26.45-29.25,68.55,2,94.05l560.5,459.5C5966.17,1114.43,6016,1113.67,6046.11,1087.22Z" transform="translate(0 2042)"/><path class="cls-32" d="M6015.2,827a10,10,0,0,0,.06-2.79c-3.49-30-32.9-281.49-37.86-292.18C5972.93,522.39,5841,362.86,5841,362.86l-64.83,74.69L5903,580.64c2.85,9.1,48.62,178.9,48.62,178.9s9.38,31,13.59,49.49c-1.92,4.46-3.8,8.68-5.47,12.14a110.36,110.36,0,0,1-13.67,18.58c-5.67,6.43-15,20.47-16.2,24.23-1.34,4.36-3.77,13.44-5.14,18.92s-3.25,11.86-3.56,14.84c-.2,1.81-2.4,5.42-4.1,8-2.53,3.8,1.79,8.28,6.68,6.91,4.61-1.3,8.2-6.34,10.41-9.48,6.24-8.88,9.57-25.08,11.12-24.22s7,28.34,7.89,31.45,7.43,35,11.13,40.86,8.61,4.86,9.91,1.21c1.11-3.15-4.09-47.81-4.09-47.81s-.65-5.69,2.3-3.92,7.77,42.33,9.82,48.26,6.73,9.08,10.7,4.31c4.83-5.8-3.47-48.8-3.47-48.8s-.93-5.41,1.8-4.91,6.15,35.06,8.28,38.05a5.76,5.76,0,0,0,10-.92c3-5.87-4.79-44.21-4.79-44.21s.39-3.05,2.09-2,7.11,30.29,10.63,33a4.22,4.22,0,0,0,5.43.07c6.47-3.73-3.45-31.58-3.35-45.43s-7.5-29.41-5.23-45.9C6014.55,831.15,6015,828.61,6015.2,827Z" transform="translate(0 2042)"/><path class="cls-6" d="M5944.08,463.9l-112.69,64s-63.51-79.91-97.6-108.36c-42.71-35.64,15.55-144.82,43.07-138.65C5838.41,294.68,5944.08,463.9,5944.08,463.9Z" transform="translate(0 2042)"/><rect class="cls-24" x="568.84" y="3805.54" width="5607.13" height="28.29"/></g></g></svg>